<svg viewBox="0 0 24 24" fill="none" xmlns="http://www.w3.org/2000/svg">
  <path d="M9.37769 21.6524C5.12669 20.5006 2 16.6152 2 11.9996C2 6.47696 6.47691 1.99957 12 1.99957C17.5226 1.99957 22 6.47696 22 11.9996C22 16.6617 18.8094 20.5788 14.493 21.6865" stroke="#009262" stroke-width="1.5" stroke-miterlimit="10" stroke-linecap="round" stroke-linejoin="round"/>
  <path d="M17.5 15.0004C17.5 15.0004 12.5 23 6.5 14.9993Z" stroke="#009262" stroke-width="1.5" stroke-miterlimit="10" stroke-linecap="round" stroke-linejoin="round"/>
  <path d="M15.6876 10.6152C16.1758 10.6152 16.5711 10.2201 16.5711 9.7318C16.5711 9.24291 16.1752 8.84742 15.6876 8.84742C15.2001 8.84742 14.8037 9.24334 14.8037 9.7318C14.8037 10.2197 15.1995 10.6152 15.6876 10.6152Z" fill="#009262" stroke="#009262" stroke-width="1.5"/>
  <path d="M8.31164 10.6152C8.79977 10.6152 9.19508 10.2201 9.19508 9.7318C9.19508 9.24291 8.79921 8.84742 8.31164 8.84742C7.82413 8.84742 7.42773 9.24334 7.42773 9.7318C7.42773 10.2197 7.82356 10.6152 8.31164 10.6152Z" fill="#009262" stroke="#009262" stroke-width="1.5"/>
</svg>
