<svg viewBox="0 0 24 24" fill="none" xmlns="http://www.w3.org/2000/svg">
  <path d="M9.37769 21.6524C5.12669 20.5006 2 16.6152 2 11.9996C2 6.47696 6.47691 1.99957 12 1.99957C17.5226 1.99957 22 6.47696 22 11.9996C22 16.6617 18.8094 20.5788 14.493 21.6865" stroke="#C33025" stroke-width="1.5" stroke-miterlimit="10" stroke-linecap="round" stroke-linejoin="round"/>
  <path d="M7.00012 17.0002C7.00012 17.0002 12.0001 11.0002 17.0001 17.0002" stroke="#C33025" stroke-width="1.5" stroke-miterlimit="10" stroke-linecap="round" stroke-linejoin="round"/>
  <path d="M15.6876 10.6143C16.1758 10.6143 16.5711 10.2191 16.5711 9.73082C16.5711 9.24194 16.1752 8.84644 15.6876 8.84644C15.2001 8.84644 14.8037 9.24236 14.8037 9.73082C14.8037 10.2187 15.1995 10.6143 15.6876 10.6143Z" fill="#C33025" stroke="#C33025" stroke-width="1.5"/>
  <path d="M8.31164 10.6143C8.79977 10.6143 9.19508 10.2191 9.19508 9.73082C9.19508 9.24194 8.79921 8.84644 8.31164 8.84644C7.82413 8.84644 7.42773 9.24236 7.42773 9.73082C7.42773 10.2187 7.82356 10.6143 8.31164 10.6143Z" fill="#C33025" stroke="#C33025" stroke-width="1.5"/>
</svg>
